<svg height="24" viewBox="0 0 24 24" width="24" xmlns="http://www.w3.org/2000/svg"><path d="m10.013 13.738-2.254.387c.319.911.956 1.708 1.753 2.231l.865-2.095c.045-.068.045-.159.022-.228-.022-.18-.204-.295-.386-.295zm.865-2.914c.205 0 .387-.159.387-.364l.114-2.277-.456.091c-.797.182-1.526.592-2.118 1.162l1.89 1.343c.069.022.115.045.183.045zm-1.002 1.48c.137-.16.114-.387-.045-.524l-1.685-1.503c-.501.843-.729 1.822-.661 2.778l2.209-.637c.091-.023.137-.046.182-.114zm1.457.797.616.296.614-.296.16-.661-.433-.546h-.683l-.433.546zm1.344-2.436c.114.159.341.182.5.091l1.867-1.32c-.683-.683-1.571-1.116-2.573-1.23l.137 2.3c.001.067.024.113.069.159z"/><path d="m21.944 14.103-1.73-7.446c-.113-.364-.387-.66-.729-.842l-6.944-3.325c-.182-.091-.387-.114-.569-.114s-.387 0-.569.045l-6.946 3.348c-.342.159-.592.455-.683.842l-1.708 7.492c-.068.387.023.774.25 1.093l4.805 5.943c.273.273.66.456 1.047.479h7.651c.41.045.797-.137 1.048-.479l4.805-5.943c.227-.319.318-.706.272-1.093zm-2.845.501c-.046 0-.068 0-.114-.023-.022-.023-.022-.023-.045-.023-.046 0-.068-.022-.092-.022-.091-.023-.159-.068-.25-.114-.046 0-.091-.022-.137-.045h-.022c-.229-.091-.479-.159-.729-.205h-.022c-.068 0-.137.023-.182.068 0 0 0 .023-.023.023l-.183-.024c-.41 1.298-1.298 2.391-2.46 3.097l.068.182s-.022 0-.022.022c-.046.068-.046.16-.022.228.091.228.205.455.364.66v.045c.046.046.068.068.091.114.068.068.114.137.159.228.023.022.046.045.046.068 0 0 .022 0 .022.022.046.114.046.228.023.342s-.114.205-.205.25c-.068.022-.114.045-.183.045-.182 0-.342-.114-.433-.273-.022 0-.022-.022-.022-.022-.022-.023-.022-.045-.046-.068-.045-.068-.068-.159-.091-.25l-.046-.137v-.022c-.068-.25-.182-.479-.296-.706-.045-.068-.113-.114-.182-.137 0-.023 0-.023-.023-.023l-.091-.159c-.228.068-.479.159-.729.205-.41.114-.82.159-1.229.159-.683 0-1.344-.114-1.981-.364l-.091.182c0 .023 0 .023-.023.023-.068.022-.136.068-.182.137-.114.228-.228.455-.296.706l-.045.137c-.023.091-.068.159-.091.25-.022.023-.045.045-.045.068-.023 0-.023.022-.023.022-.091.16-.25.273-.433.273-.045 0-.114-.023-.159-.045-.205-.114-.296-.387-.182-.615.023 0 .023-.023.023-.023.022-.023.022-.045.045-.068.068-.091.114-.182.159-.228s.068-.068.091-.114v-.023c.137-.205.273-.433.364-.66.023-.068.023-.16-.023-.228 0 0-.022 0-.022-.022l.114-.16c-.228-.114-.41-.25-.615-.41-.888-.683-1.526-1.617-1.867-2.664l-.205.022s0-.022-.023-.022c-.045-.046-.114-.068-.182-.068h-.022c-.273.045-.501.114-.751.205h-.024c-.045 0-.091.023-.137.046-.068.022-.159.068-.25.091-.022 0-.091-.022-.091 0 0 .023 0 .023-.023.023-.045.023-.068.023-.114.023-.205.022-.41-.114-.456-.319-.045-.25.114-.479.364-.524.023-.023.023-.023.046-.023.045 0 .068-.022.091-.022.091 0 .182-.023.273-.023.045-.022.091-.022.137-.022.273-.023.523-.068.774-.137.068-.046.137-.091.16-.16 0 0 .022 0 .022-.022l.182-.046c-.205-1.298.091-2.618.797-3.734.022-.045.045-.068.068-.114l-.131-.132c-.001.007-.002.013-.004.019v-.023l.004.004c.01-.065-.031-.145-.072-.186-.182-.182-.41-.319-.638-.455-.045-.023-.091-.046-.136-.069-.091-.045-.182-.091-.251-.136-.022 0-.068-.045-.068-.045s0-.023-.022-.023c-.183-.16-.229-.433-.092-.639.068-.114.182-.159.319-.159.114 0 .228.045.319.114 0 0 0 0 .023.023.022.022.045.022.068.045.068.069.114.137.182.205.023.022.068.045.091.091.159.182.364.364.569.524.045.022.091.045.137.045.045 0 .068-.023.091-.023h.023l.137.091c.751-.797 1.73-1.366 2.801-1.594.273-.046.523-.091.774-.114l.023-.182v-.045c.068-.045.091-.114.114-.182 0-.273 0-.524-.045-.774v-.023c0-.045 0-.091-.023-.137-.023-.091-.045-.182-.045-.273v-.113c0-.114.045-.228.137-.319.114-.114.25-.182.387-.159.228.022.41.25.387.478v.137c-.023.091-.023.182-.045.273 0 .045-.023.091-.023.136v.023c-.048.273-.048.524-.048.774.023.068.045.136.114.182v-.023l.023.182c1.07.114 2.117.524 2.96 1.184.183.182.387.364.569.546l.183-.114h.022c.022.023.068.023.091.023.046 0 .091-.023.137-.045.205-.137.41-.319.569-.501.022-.023.068-.046.091-.091.046-.068.114-.137.183-.205.022 0 .045-.022.068-.045l.022-.023c.091-.068.205-.114.318-.114.114 0 .251.068.319.16.159.205.113.478-.091.637 0 .023.022.023 0 .046-.023.022-.046.022-.068.045-.092.045-.16.091-.251.137-.045.022-.091.045-.137.068-.228.137-.433.273-.638.455-.045.046-.068.137-.068.205v.023l-.136.137c.364.569.638 1.207.797 1.867.137.66.182 1.343.091 2.003l.182.046c.023.068.092.136.16.159.25.068.523.114.773.137h.023c.045.022.091.022.137.022.091 0 .182 0 .272.023.046 0 .092 0 .092.023 0 .022.022.022.045.022.205.046.388.228.41.479-.067.183-.248.32-.453.32z"/><path d="m12.085 14.718c-.159-.091-.341-.046-.455.091l-1.116 2.027c.456.136.957.228 1.435.228.341 0 .66-.045.979-.114.159-.045.296-.068.433-.091l-1.093-1.981c-.069-.069-.115-.115-.183-.16zm3.644-4.441-1.708 1.548c-.046.045-.068.091-.091.16-.046.205.068.41.273.455l2.163.615c.045-.478.022-.956-.092-1.435-.113-.477-.295-.933-.545-1.343zm-2.073 3.484c-.159.068-.25.25-.205.433l.889 2.141c.546-.342 1.024-.82 1.366-1.366.182-.25.318-.547.433-.865l-2.277-.387c-.069-.001-.137.021-.206.044z"/></svg>