<svg width="155" height="155" viewBox="0 0 155 155" fill="none" xmlns="http://www.w3.org/2000/svg">
<path opacity="0.991" fill-rule="evenodd" clip-rule="evenodd" d="M79.0529 4.06726C79.3582 4.09492 79.654 4.16887 79.9403 4.28911C97.9888 13.0176 116.033 21.7438 134.072 30.4675C105.291 35.5188 76.4991 40.5227 47.698 45.4795C47.4862 45.445 47.4122 45.3464 47.4761 45.1837C58.0336 31.4965 68.5592 17.7911 79.0529 4.06726Z" fill="#6CA1FF"/>
<path opacity="0.988" fill-rule="evenodd" clip-rule="evenodd" d="M69.8831 6.13785C70.1574 6.10413 70.2807 6.20274 70.2528 6.43366C48.2896 34.9785 26.3263 63.5233 4.36305 92.0682C4.31375 91.9942 4.26444 91.9203 4.21515 91.8463C8.83629 71.6608 13.4459 51.4724 18.0439 31.281C35.3438 22.9142 52.6237 14.5332 69.8831 6.13785Z" fill="#94C5FF"/>
<path opacity="0.994" fill-rule="evenodd" clip-rule="evenodd" d="M135.995 35.866C136.291 35.866 136.586 35.866 136.882 35.866C140.904 53.8757 144.996 71.8702 149.158 89.8497C149.109 89.899 149.059 89.9484 149.01 89.9976C136.614 80.0424 124.24 70.0591 111.887 60.0477C110.146 58.9605 108.642 59.2316 107.376 60.8612C87.3178 86.4905 67.2033 112.077 47.0324 137.622C45.8404 109.028 44.6818 80.4344 43.5568 51.8392C74.4016 46.5917 105.214 41.2673 135.995 35.866Z" fill="#4278F4"/>
<path opacity="0.991" fill-rule="evenodd" clip-rule="evenodd" d="M37.9366 57.6074C38.058 58.0719 38.1319 58.565 38.1584 59.0864C39.318 86.8416 40.4025 114.598 41.4122 142.354C29.7648 127.782 18.1545 113.19 6.5816 98.5759C16.9969 84.8948 27.4486 71.2385 37.9366 57.6074Z" fill="#A1C3FF"/>
<path opacity="0.994" fill-rule="evenodd" clip-rule="evenodd" d="M110.26 66.1856C110.47 66.2165 110.667 66.2905 110.852 66.4075C123.134 76.4714 135.459 86.4794 147.827 96.4313C148.083 96.6368 148.279 96.8833 148.418 97.1708C136.175 112.643 123.85 128.05 111.443 143.39C99.3659 132.594 87.3367 121.748 75.3554 110.852C87.0538 95.9997 98.6887 81.1112 110.26 66.1856Z" fill="#004AD1"/>
<path opacity="0.99" fill-rule="evenodd" clip-rule="evenodd" d="M71.6579 115.437C72.5046 115.961 73.2935 116.577 74.0243 117.285C84.5305 126.855 95.0807 136.37 105.675 145.83C86.3987 145.929 67.1222 145.929 47.8459 145.83C55.8024 135.708 63.7397 125.577 71.6579 115.437Z" fill="#2E3092"/>
<path opacity="0.268" fill-rule="evenodd" clip-rule="evenodd" d="M109.816 145.312C109.968 145.371 109.993 145.47 109.89 145.608C109.766 145.831 109.594 145.905 109.373 145.83C109.552 145.676 109.699 145.504 109.816 145.312Z" fill="#4278F4"/>
</svg>
