<?xml version="1.0" encoding="UTF-8"?> <svg xmlns="http://www.w3.org/2000/svg" width="108" height="100" viewBox="0 0 108 100" fill="none"><g clip-path="url(#clip0_403_16795)"><path d="M85.9024 81.8139C84.9041 80.8372 83.7231 80.0667 82.4268 79.5467C81.1306 79.0267 79.7445 78.7673 78.3479 78.7833C76.9514 78.7993 75.5716 79.0904 74.2876 79.64C73.0036 80.1896 71.8405 80.9868 70.8649 81.9862C70.2607 82.6007 69.7346 83.2872 69.2984 84.0304C68.3744 85.6579 67.8963 87.5004 67.9122 89.3719C67.8847 90.7428 68.1411 92.1046 68.6655 93.3716C69.1898 94.6386 69.9706 95.7834 70.9588 96.734C71.9408 97.7213 73.1126 98.4996 74.4034 99.0218C75.6943 99.5441 77.0775 99.7996 78.4698 99.7729C80.5453 99.7613 82.5712 99.1374 84.2936 97.9792C86.016 96.821 87.3582 95.1802 88.1519 93.2624C88.9456 91.3446 89.1555 89.2352 88.7554 87.1986C88.3552 85.162 87.3628 83.2888 85.9024 81.8139ZM85.7928 93.609C85.0477 94.9027 83.9648 95.9694 82.66 96.6949C81.377 97.4312 79.9241 97.82 78.4449 97.8226C76.9657 97.8253 75.5114 97.4417 74.2259 96.71C72.9403 95.9782 71.8681 94.9235 71.1151 93.6503C70.3622 92.377 69.9547 90.9293 69.9328 89.4502V89.364C69.9089 87.8344 70.2928 86.3259 71.045 84.9937C72.1425 83.0481 73.9675 81.6179 76.119 81.0172C78.2705 80.4166 80.5724 80.6947 82.519 81.7904L82.6365 81.8609C83.9565 82.5832 85.0545 83.6519 85.8122 84.952C86.5699 86.252 86.9585 87.7342 86.9363 89.2387C86.9533 90.7716 86.5584 92.2809 85.7928 93.609Z" fill="#2C3958"></path><path d="M107.739 93.6089V93.6716C107.747 94.4895 107.575 95.2992 107.233 96.0426C106.892 96.7859 106.391 97.4446 105.765 97.9714C104.334 99.137 102.526 99.7388 100.682 99.6631C99.2252 99.6725 97.7823 99.3791 96.4448 98.8016C95.1308 98.2165 93.938 97.3903 92.9282 96.3658L94.385 94.9561C95.1937 95.805 96.1655 96.4819 97.2422 96.9463C98.3188 97.4106 99.4782 97.6527 100.651 97.6581C103.643 97.6581 105.679 96.0917 105.679 93.6716V93.6089C105.72 93.1664 105.651 92.7206 105.479 92.3109C105.307 91.9011 105.037 91.54 104.692 91.2593C103.382 90.3819 101.896 89.8018 100.337 89.5597C97.9877 89.0742 96.4213 88.4711 95.4267 87.6722C94.9091 87.2526 94.4976 86.7169 94.2255 86.1087C93.9534 85.5005 93.8283 84.8368 93.8602 84.1713V84.1165C93.8558 83.4112 94.0139 82.7144 94.3223 82.0801C94.6303 81.4321 95.0674 80.8537 95.6068 80.3805C96.8634 79.3695 98.435 78.8318 100.048 78.8611C101.227 78.8747 102.395 79.0892 103.502 79.4955C104.551 79.9075 105.531 80.478 106.407 81.1873L105.131 82.7537C103.701 81.5659 101.906 80.9075 100.048 80.8896C98.9305 80.852 97.8374 81.2191 96.9696 81.9235C96.6403 82.191 96.3737 82.5273 96.1883 82.9089C96.0029 83.2904 95.9034 83.708 95.8966 84.1321V84.1869C95.863 84.5515 95.9222 84.9187 96.0688 85.2542C96.2153 85.5897 96.4444 85.8827 96.7346 86.1058C97.9757 86.8992 99.3725 87.4173 100.831 87.6252C103.298 88.1735 104.95 88.8314 106.055 89.7477C106.617 90.2159 107.061 90.8088 107.354 91.4791C107.646 92.1494 107.778 92.8787 107.739 93.6089Z" fill="#2C3958"></path><path d="M61.8744 83.5369C60.8065 81.8752 59.2 80.6309 57.324 80.0125C55.2068 79.4265 53.0099 79.1807 50.8155 79.2841H46.6802V99.2716H53.0398C55.0348 99.3709 57.0253 99.0007 58.8512 98.1908C60.277 97.419 61.4472 96.2487 62.219 94.823C63.1117 93.2039 63.5577 91.3767 63.5113 89.5285C63.5688 87.4135 62.9992 85.3289 61.8744 83.5369ZM60.1905 94.2199C59.342 95.4822 58.0873 96.4163 56.6348 96.8671C54.7522 97.2907 52.8216 97.4619 50.8938 97.3762H48.5599V81.25H49.9775C52.0531 81.1667 54.1307 81.3563 56.157 81.8139C57.7522 82.2617 59.1387 83.2572 60.073 84.6256C61.0393 86.0858 61.5291 87.8097 61.475 89.5598C61.5361 91.2195 61.0908 92.8584 60.1984 94.259L60.1905 94.2199Z" fill="#2C3958"></path><path d="M3.2274 84.9859C2.46676 86.3096 2.07714 87.814 2.09958 89.3405C2.07175 90.4763 2.28094 91.6055 2.71381 92.656C3.14668 93.7065 3.79372 94.6552 4.61367 95.4417C5.45753 96.2478 6.45439 96.8766 7.54536 97.2909C8.63633 97.7052 9.79928 97.8967 10.9655 97.854C12.314 97.8778 13.6501 97.5931 14.8718 97.0216C16.0934 96.4502 17.1683 95.6071 18.0144 94.5567L19.5808 95.755C18.5858 97.0142 17.3052 98.0184 15.8449 98.6842C14.2775 99.3896 12.5745 99.7425 10.8558 99.718C9.30273 99.7905 7.75309 99.5144 6.32059 98.91C4.88809 98.3055 3.60906 97.3881 2.57733 96.2249C0.886632 94.2687 -0.0298993 91.7615 0.000579221 89.176C-0.0274261 87.7992 0.23261 86.4316 0.764013 85.1611C1.29542 83.8906 2.08646 82.7451 3.08642 81.7982C4.10209 80.8063 5.3074 80.0293 6.63025 79.5139C7.95309 78.9985 9.36631 78.7552 10.7854 78.7985C12.5305 78.7689 14.259 79.1414 15.837 79.8872C17.3219 80.5888 18.6086 81.6494 19.5808 82.973L18.0144 84.1792C17.1901 83.0831 16.116 82.1997 14.8815 81.6024C13.6279 81.0121 12.2571 80.7122 10.8715 80.7252C9.3187 80.7156 7.79041 81.1125 6.43855 81.8765C5.10499 82.6012 3.99466 83.6763 3.2274 84.9859Z" fill="#2C3958"></path><path d="M39.5918 79.2841H41.5107V91.3064C41.5792 93.5425 40.7567 95.7142 39.224 97.3439C37.6913 98.9735 35.574 99.9275 33.3379 99.9961C32.2307 100.03 31.1276 99.8455 30.0917 99.4532C29.0558 99.0608 28.1073 98.4683 27.3004 97.7094C25.6708 96.1767 24.7167 94.0594 24.6482 91.8233V79.292H26.6297V91.3142C26.6297 93.0362 27.3138 94.6877 28.5314 95.9053C29.749 97.1229 31.4005 97.807 33.1225 97.807C34.8445 97.807 36.496 97.1229 37.7136 95.9053C38.9312 94.6877 39.6153 93.0362 39.6153 91.3142L39.5918 79.2841Z" fill="#2C3958"></path><path d="M78.9485 10.354C73.1473 4.56337 65.5178 0.96322 57.3599 0.166815C49.202 -0.629591 41.0203 1.42702 34.2086 5.98629C27.3969 10.5456 22.3767 17.3254 20.003 25.1709C17.6294 33.0164 18.0493 41.4422 21.1911 49.0128C24.3329 56.5835 30.0023 62.8307 37.2335 66.6902C44.4647 70.5497 52.8103 71.7827 60.8487 70.1792C68.887 68.5758 76.1207 64.2349 81.3176 57.8963C86.5145 51.5577 89.353 43.6133 89.3495 35.4166C89.3472 30.7607 88.4274 26.1508 86.6427 21.8504C84.8581 17.5501 82.2435 13.6435 78.9485 10.354ZM52.0375 67.1679C43.9903 66.6311 36.4479 63.0558 30.9381 57.1662C25.4283 51.2766 22.3629 43.513 22.3629 35.4479C22.3629 27.3829 25.4283 19.6193 30.9381 13.7297C36.4479 7.84008 43.9903 4.2648 52.0375 3.72802V15.7189C47.121 16.1685 42.55 18.4395 39.2217 22.086C35.8934 25.7325 34.0482 30.4913 34.0482 35.4284C34.0482 40.3654 35.8934 45.1242 39.2217 48.7708C42.55 52.4173 47.121 54.6882 52.0375 55.1378V67.1679ZM53.8702 51.5507C50.1365 51.5476 46.5194 50.2496 43.6356 47.878C40.7519 45.5064 38.7799 42.208 38.0559 38.5451C37.3319 34.8823 37.9007 31.0817 39.6653 27.7913C41.43 24.5009 44.2812 21.9244 47.733 20.501C51.1847 19.0776 55.0233 18.8954 58.5943 19.9855C62.1654 21.0756 65.2478 23.3706 67.3161 26.4791C69.3844 29.5876 70.3106 33.3172 69.9367 37.0322C69.5629 40.7471 67.9121 44.2174 65.2659 46.8515C62.239 49.8644 58.141 51.5543 53.8702 51.5507ZM76.9748 57.2368C71.4143 63.14 63.8066 66.6931 55.7107 67.1679V55.1378C60.6273 54.6882 65.1983 52.4173 68.5266 48.7708C71.8548 45.1242 73.7001 40.3654 73.7001 35.4284C73.7001 30.4913 71.8548 25.7325 68.5266 22.086C65.1983 18.4395 60.6273 16.1685 55.7107 15.7189V3.68886C61.7501 4.04339 67.563 6.11383 72.4666 9.65704C77.3703 13.2002 81.1611 18.0691 83.3939 23.6918C85.6267 29.3145 86.2087 35.4575 85.0717 41.3995C83.9347 47.3415 81.1257 52.8357 76.9748 57.2368Z" fill="url(#paint0_linear_403_16795)"></path></g><defs><linearGradient id="paint0_linear_403_16795" x1="20.7797" y1="68.5698" x2="86.3498" y2="2.99964" gradientUnits="userSpaceOnUse"><stop stop-color="#53A5F4"></stop><stop offset="1" stop-color="#6CD6F7"></stop></linearGradient><clipPath id="clip0_403_16795"><rect width="107.746" height="100" fill="white"></rect></clipPath></defs></svg> 